<svg version="1.1" id="Layer_1" xmlns="http://www.w3.org/2000/svg" xmlns:xlink="http://www.w3.org/1999/xlink" x="0px" y="0px"
	 width="100%" viewBox="0 0 96 96" enable-background="new 0 0 96 96" xml:space="preserve">
<path fill="#EAEFF5" opacity="1.000000" stroke="none" 
	d="
M1.000000,61.000000 
	C1.000000,53.312424 1.000000,45.624847 1.355538,37.398682 
	C2.112413,36.379936 2.711232,35.962437 2.886337,35.410515 
	C7.828139,19.834164 18.339975,9.576715 33.215336,3.407033 
	C34.575657,2.842827 35.743031,1.813397 37.000000,1.000000 
	C44.687576,1.000000 52.375153,1.000000 60.601318,1.355539 
	C61.620056,2.112414 62.037552,2.711228 62.589478,2.886333 
	C78.165840,7.828129 88.423279,18.339987 94.592972,33.215343 
	C95.157181,34.575665 96.186600,35.743034 97.000000,37.000000 
	C97.000000,44.687576 97.000000,52.375153 96.648209,60.595318 
	C94.140900,65.093658 91.985374,69.059402 89.612411,72.699509 
	C88.925003,69.105591 88.126884,65.844803 88.052277,62.567539 
	C87.889137,55.400764 86.128731,49.555035 78.146049,47.614151 
	C78.580307,46.883804 78.918396,46.426003 79.544586,45.752281 
	C79.942505,42.744648 80.052322,39.952938 80.478027,37.053108 
	C80.204155,35.696114 79.786156,33.516556 78.992905,33.370148 
	C76.454613,32.901672 73.680908,32.737526 71.173851,33.275322 
	C66.119400,34.359558 66.065010,39.349895 65.061676,43.049511 
	C64.732567,44.263023 67.694412,46.369038 69.021263,48.398491 
	C65.051537,50.498730 64.031372,53.643074 64.179680,57.629723 
	C64.307747,61.072250 63.967865,64.532181 63.519543,67.973274 
	C62.993958,67.956650 62.783688,67.951172 62.569122,67.493408 
	C62.442688,62.054150 62.450207,57.059513 62.156029,52.082710 
	C61.933895,48.324738 50.858570,40.824612 47.296989,41.923473 
	C46.428043,42.191574 45.780331,43.109718 44.958557,43.610199 
	C42.433998,45.147739 39.827118,46.554771 37.348370,48.160896 
	C36.118755,48.957634 35.099594,50.079170 33.658035,51.068512 
	C32.491230,50.475010 31.651615,49.866764 30.542316,49.066498 
	C28.549038,47.237877 26.825445,45.601269 25.166775,43.624191 
	C28.534840,41.677349 30.955626,39.184963 29.510525,35.447815 
	C28.600979,33.095650 26.352039,29.748919 24.489138,29.603680 
	C20.985811,29.330544 17.326988,31.051867 13.732818,31.943920 
	C13.768441,32.544266 13.804064,33.144608 13.839687,33.744953 
	C15.204219,34.857834 16.568750,35.970715 17.959105,37.479355 
	C18.065794,38.921944 18.146662,39.968777 18.201645,41.426769 
	C18.890184,42.535252 19.604610,43.232571 19.992973,44.161438 
	C13.839795,51.016167 11.347796,58.497097 13.821955,67.593460 
	C13.955176,68.628540 14.055677,69.316994 14.074650,70.385033 
	C13.285554,73.180847 12.577986,75.597069 11.540821,77.943001 
	C8.774905,73.623344 6.372007,69.354263 3.883823,65.135490 
	C3.032538,63.692123 1.967422,62.374870 1.000000,61.000000 
M45.125050,38.535816 
	C50.417370,42.472717 53.833748,41.190598 55.765060,34.122631 
	C56.113865,33.399021 56.845680,32.095501 56.755775,32.036118 
	C54.110123,30.288734 51.505314,28.347593 48.590889,27.222481 
	C47.757339,26.900688 45.799328,28.824236 44.688839,30.025139 
	C42.323265,32.583317 42.314735,35.289337 45.125050,38.535816 
M67.599258,21.020079 
	C66.056190,19.730522 64.513123,18.440964 62.854622,17.054934 
	C60.244038,19.827541 60.237396,22.609758 62.494614,24.706303 
	C63.651535,25.780876 66.092239,25.857286 67.893051,25.700214 
	C68.861641,25.615734 69.704063,24.084766 70.603409,23.206467 
	C69.839973,22.513645 69.076538,21.820824 67.599258,21.020079 
M38.493519,24.064095 
	C40.529686,21.297016 41.015247,18.669233 38.508919,16.516373 
	C36.014744,17.921442 33.812019,18.828747 32.089741,20.298891 
	C31.413269,20.876329 31.573833,23.772358 31.757292,23.813568 
	C33.731224,24.256960 35.785954,24.340651 38.493519,24.064095 
M48.826633,7.059237 
	C46.961029,10.079902 47.691727,14.055786 50.646591,14.485226 
	C52.524540,14.758152 55.594234,13.721303 56.506893,12.259048 
	C58.214504,9.523136 55.512024,9.399430 53.470055,8.981683 
	C52.096722,8.700724 50.880436,7.652112 48.826633,7.059237 
M64.844429,35.923710 
	C64.725655,33.993423 64.606880,32.063133 64.488113,30.132847 
	C63.774750,30.004417 63.061390,29.875988 62.348030,29.747559 
	C61.652428,31.909843 60.956825,34.072128 60.261223,36.234413 
	C61.683372,36.375874 63.105522,36.517338 64.844429,35.923710 
M35.618317,40.460648 
	C34.672459,39.456074 33.726604,38.451500 32.649887,37.307941 
	C29.953787,42.904179 30.725885,44.872189 35.876621,45.467831 
	C35.876621,44.010708 35.876621,42.592491 35.618317,40.460648 
z"/>
<path fill="#FDFDFE" opacity="1.000000" stroke="none" 
	d="
M89.829849,73.025154 
	C91.985374,69.059402 94.140900,65.093658 96.648209,61.063953 
	C97.000000,72.930496 97.000000,84.860985 97.000000,97.000000 
	C83.979851,97.000000 70.958580,97.000000 57.545036,96.723274 
	C57.675980,96.252342 58.199207,96.058128 59.098244,95.863052 
	C61.347263,95.225479 63.220474,94.588776 65.450333,93.935822 
	C73.963966,90.816811 80.932335,86.085083 86.486786,78.868439 
	C87.786987,76.810608 88.808418,74.917877 89.829849,73.025154 
z"/>
<path fill="#FDFDFE" opacity="1.000000" stroke="none" 
	d="
M1.000000,61.468658 
	C1.967422,62.374870 3.032538,63.692123 3.883823,65.135490 
	C6.372007,69.354263 8.774905,73.623344 11.610415,78.291031 
	C16.101221,85.186668 21.800245,89.619843 29.255886,92.357697 
	C31.668571,93.402122 33.861721,94.187164 36.335960,95.121284 
	C37.411369,95.846909 38.205685,96.423454 39.000000,97.000000 
	C26.408699,97.000000 13.817399,97.000000 1.000000,97.000000 
	C1.000000,85.313408 1.000000,73.625366 1.000000,61.468658 
z"/>
<path fill="#FFFFFF" opacity="1.000000" stroke="none" 
	d="
M36.531342,1.000000 
	C35.743031,1.813397 34.575657,2.842827 33.215336,3.407033 
	C18.339975,9.576715 7.828139,19.834164 2.886337,35.410515 
	C2.711232,35.962437 2.112413,36.379936 1.355538,36.930046 
	C1.000000,25.073397 1.000000,13.146794 1.000000,1.000000 
	C12.686640,1.000000 24.374662,1.000000 36.531342,1.000000 
z"/>
<path fill="#FFFFFF" opacity="1.000000" stroke="none" 
	d="
M97.000000,36.531342 
	C96.186600,35.743034 95.157181,34.575665 94.592972,33.215343 
	C88.423279,18.339987 78.165840,7.828129 62.589478,2.886333 
	C62.037552,2.711228 61.620056,2.112414 61.069954,1.355539 
	C72.926605,1.000000 84.853210,1.000000 97.000000,1.000000 
	C97.000000,12.686641 97.000000,24.374662 97.000000,36.531342 
z"/>
<path fill="#3D318B" opacity="1.000000" stroke="none" 
	d="
M39.467941,97.000000 
	C38.205685,96.423454 37.411369,95.846909 36.332611,94.770340 
	C36.077808,93.574608 36.107452,92.878899 36.531292,92.134323 
	C37.564957,91.462532 38.600418,90.937897 38.783199,90.201591 
	C40.814617,82.018326 40.778984,82.009514 48.997375,81.944878 
	C49.497349,81.940948 50.009285,82.005409 50.495377,81.921104 
	C54.229839,81.273468 55.426529,83.334564 55.924686,86.601593 
	C56.215019,88.505661 57.140781,90.312843 57.834656,92.485748 
	C58.166588,93.826561 58.444508,94.845238 58.722431,95.863922 
	C58.199207,96.058128 57.675980,96.252342 57.076378,96.723274 
	C51.311958,97.000000 45.623920,97.000000 39.467941,97.000000 
z"/>
<path fill="#488FC3" opacity="1.000000" stroke="none" 
	d="
M57.780647,92.163612 
	C57.140781,90.312843 56.215019,88.505661 55.924686,86.601593 
	C55.426529,83.334564 54.229839,81.273468 50.495377,81.921104 
	C50.009285,82.005409 49.497349,81.940948 48.997375,81.944878 
	C40.778984,82.009514 40.814617,82.018326 38.783199,90.201591 
	C38.600418,90.937897 37.564957,91.462532 36.432289,91.725128 
	C35.283737,86.716675 34.330067,82.086395 34.050835,77.415794 
	C33.724098,71.950714 33.985058,66.450485 34.025749,60.515251 
	C34.035362,57.061256 34.010296,54.057510 33.985226,51.053768 
	C35.099594,50.079170 36.118755,48.957634 37.348370,48.160896 
	C39.827118,46.554771 42.433998,45.147739 44.958557,43.610199 
	C45.780331,43.109718 46.428043,42.191574 47.296989,41.923473 
	C50.858570,40.824612 61.933895,48.324738 62.156029,52.082710 
	C62.450207,57.059513 62.442688,62.054150 62.403103,67.850510 
	C61.428879,76.622467 62.258453,84.896675 57.780647,92.163612 
z"/>
<path fill="#4A90C3" opacity="1.000000" stroke="none" 
	d="
M89.612411,72.699509 
	C88.808418,74.917877 87.786987,76.810608 86.421021,78.498932 
	C83.672531,72.005684 77.840027,75.255699 73.696777,74.372169 
	C72.159843,74.044418 69.604736,77.857201 67.727196,79.971130 
	C66.345589,81.526695 65.310684,83.390190 63.760941,84.887238 
	C63.545353,79.100143 63.690105,73.542282 63.834858,67.984421 
	C63.967865,64.532181 64.307747,61.072250 64.179680,57.629723 
	C64.031372,53.643074 65.051537,50.498730 69.379990,48.411198 
	C72.595810,48.023785 75.322845,47.955238 78.049881,47.886696 
	C86.128731,49.555035 87.889137,55.400764 88.052277,62.567539 
	C88.126884,65.844803 88.925003,69.105591 89.612411,72.699509 
z"/>
<path fill="#3E4397" opacity="1.000000" stroke="none" 
	d="
M13.789233,67.246826 
	C11.347796,58.497097 13.839795,51.016167 20.326149,44.180412 
	C22.357540,43.966789 23.729696,43.965725 25.101852,43.964661 
	C26.825445,45.601269 28.549038,47.237877 30.245384,49.281075 
	C29.417540,51.211384 28.116482,52.671017 27.911585,54.271027 
	C27.331495,58.800842 27.200188,63.388126 26.452738,67.973999 
	C21.938658,67.745766 17.863945,67.496300 13.789233,67.246826 
z"/>
<path fill="#3F338C" opacity="1.000000" stroke="none" 
	d="
M29.036352,92.098312 
	C21.800245,89.619843 16.101221,85.186668 11.940010,78.361328 
	C12.577986,75.597069 13.285554,73.180847 14.525574,70.375809 
	C19.006647,70.039902 22.955269,70.092812 26.902493,70.547363 
	C27.079681,73.659081 27.034145,76.410889 27.527811,79.062286 
	C27.789545,80.468010 28.987680,81.699394 29.767040,83.423141 
	C29.526110,86.590645 29.281231,89.344475 29.036352,92.098312 
z"/>
<path fill="#40368D" opacity="1.000000" stroke="none" 
	d="
M78.146049,47.614151 
	C75.322845,47.955238 72.595810,48.023785 69.510040,48.079620 
	C67.694412,46.369038 64.732567,44.263023 65.061676,43.049511 
	C66.065010,39.349895 66.119400,34.359558 71.173851,33.275322 
	C73.680908,32.737526 76.454613,32.901672 78.992905,33.370148 
	C79.786156,33.516556 80.204155,35.696114 80.086823,36.980862 
	C74.880241,39.009300 74.837723,42.097553 79.256485,45.968201 
	C78.918396,46.426003 78.580307,46.883804 78.146049,47.614151 
z"/>
<path fill="#5FC1E1" opacity="1.000000" stroke="none" 
	d="
M29.763092,83.009476 
	C28.987680,81.699394 27.789545,80.468010 27.527811,79.062286 
	C27.034145,76.410889 27.079681,73.659081 26.924147,70.181747 
	C26.928833,68.927246 26.910471,68.440010 26.892109,67.952774 
	C27.200188,63.388126 27.331495,58.800842 27.911585,54.271027 
	C28.116482,52.671017 29.417540,51.211384 30.515068,49.473091 
	C31.651615,49.866764 32.491230,50.475010 33.658035,51.068512 
	C34.010296,54.057510 34.035362,57.061256 33.682129,60.749569 
	C32.123581,68.625916 30.943336,75.817696 29.763092,83.009476 
z"/>
<path fill="#41388F" opacity="1.000000" stroke="none" 
	d="
M25.166775,43.624191 
	C23.729696,43.965725 22.357540,43.966789 20.652210,43.948872 
	C19.604610,43.232571 18.890184,42.535252 18.552517,41.417389 
	C19.771559,40.000225 20.613846,39.003593 21.456135,38.006962 
	C20.281851,37.699173 19.107567,37.391384 17.933283,37.083595 
	C16.568750,35.970715 15.204219,34.857834 13.839687,33.744953 
	C13.804064,33.144608 13.768441,32.544266 13.732818,31.943920 
	C17.326988,31.051867 20.985811,29.330544 24.489138,29.603680 
	C26.352039,29.748919 28.600979,33.095650 29.510525,35.447815 
	C30.955626,39.184963 28.534840,41.677349 25.166775,43.624191 
z"/>
<path fill="#DFE9F3" opacity="1.000000" stroke="none" 
	d="
M63.519547,67.973274 
	C63.690105,73.542282 63.545353,79.100143 63.768600,85.291306 
	C64.455635,88.600426 64.774658,91.276253 65.093681,93.952072 
	C63.220474,94.588776 61.347263,95.225479 59.098244,95.863052 
	C58.444508,94.845238 58.166588,93.826561 57.834656,92.485748 
	C62.258453,84.896675 61.428879,76.622467 62.407402,68.302795 
	C62.783688,67.951172 62.993958,67.956650 63.519547,67.973274 
z"/>
<path fill="#443B90" opacity="1.000000" stroke="none" 
	d="
M44.845314,37.847485 
	C42.314735,35.289337 42.323265,32.583317 44.688839,30.025139 
	C45.799328,28.824236 47.757339,26.900688 48.590889,27.222481 
	C51.505314,28.347593 54.110123,30.288734 56.755775,32.036118 
	C56.845680,32.095501 56.113865,33.399021 55.184299,34.202145 
	C50.873211,34.163303 47.047356,33.783535 44.845314,37.847485 
z"/>
<path fill="#FBC097" opacity="1.000000" stroke="none" 
	d="
M67.956177,21.074039 
	C69.076538,21.820824 69.839973,22.513645 70.603409,23.206467 
	C69.704063,24.084766 68.861641,25.615734 67.893051,25.700214 
	C66.092239,25.857286 63.651535,25.780876 62.494614,24.706303 
	C60.237396,22.609758 60.244038,19.827541 62.854622,17.054934 
	C64.513123,18.440964 66.056190,19.730522 67.956177,21.074039 
z"/>
<path fill="#FBBF97" opacity="1.000000" stroke="none" 
	d="
M38.156044,24.293444 
	C35.785954,24.340651 33.731224,24.256960 31.757292,23.813568 
	C31.573833,23.772358 31.413269,20.876329 32.089741,20.298891 
	C33.812019,18.828747 36.014744,17.921442 38.508919,16.516373 
	C41.015247,18.669233 40.529686,21.297016 38.156044,24.293444 
z"/>
<path fill="#FCBE93" opacity="1.000000" stroke="none" 
	d="
M49.210258,7.003088 
	C50.880436,7.652112 52.096722,8.700724 53.470055,8.981683 
	C55.512024,9.399430 58.214504,9.523136 56.506893,12.259048 
	C55.594234,13.721303 52.524540,14.758152 50.646591,14.485226 
	C47.691727,14.055786 46.961029,10.079902 49.210258,7.003088 
z"/>
<path fill="#56BADD" opacity="1.000000" stroke="none" 
	d="
M44.985184,38.191650 
	C47.047356,33.783535 50.873211,34.163303 54.971195,34.492184 
	C53.833748,41.190598 50.417370,42.472717 44.985184,38.191650 
z"/>
<path fill="#CCDDEC" opacity="1.000000" stroke="none" 
	d="
M64.686050,36.291252 
	C63.105522,36.517338 61.683372,36.375874 60.261223,36.234413 
	C60.956825,34.072128 61.652428,31.909843 62.348030,29.747559 
	C63.061390,29.875988 63.774750,30.004417 64.488113,30.132847 
	C64.606880,32.063133 64.725655,33.993423 64.686050,36.291252 
z"/>
<path fill="#57B3D9" opacity="1.000000" stroke="none" 
	d="
M79.544586,45.752281 
	C74.837723,42.097553 74.880241,39.009300 79.770935,37.088982 
	C80.052322,39.952938 79.942505,42.744648 79.544586,45.752281 
z"/>
<path fill="#CCDDEC" opacity="1.000000" stroke="none" 
	d="
M35.747467,40.817459 
	C35.876621,42.592491 35.876621,44.010708 35.876621,45.467831 
	C30.725885,44.872189 29.953787,42.904179 32.649887,37.307941 
	C33.726604,38.451500 34.672459,39.456074 35.747467,40.817459 
z"/>
<path fill="#4DA7D2" opacity="1.000000" stroke="none" 
	d="
M26.452740,67.973999 
	C26.910471,68.440010 26.928833,68.927246 26.925545,69.780106 
	C22.955269,70.092812 19.006647,70.039902 14.607101,69.996216 
	C14.055677,69.316994 13.955176,68.628540 13.821955,67.593460 
	C17.863945,67.496300 21.938658,67.745766 26.452740,67.973999 
z"/>
<path fill="#3E4397" opacity="1.000000" stroke="none" 
	d="
M17.959105,37.479355 
	C19.107567,37.391384 20.281851,37.699173 21.456135,38.006962 
	C20.613846,39.003593 19.771559,40.000225 18.578400,41.006233 
	C18.146662,39.968777 18.065794,38.921944 17.959105,37.479355 
z"/>
<path fill="#3D338C" opacity="1.000000" stroke="none" 
	d="
M65.450333,93.935822 
	C64.774658,91.276253 64.455635,88.600426 64.128944,85.520538 
	C65.310684,83.390190 66.345589,81.526695 67.727196,79.971130 
	C69.604736,77.857201 72.159843,74.044418 73.696777,74.372169 
	C77.840027,75.255699 83.672531,72.005684 86.142242,78.664032 
	C80.932335,86.085083 73.963966,90.816811 65.450333,93.935822 
z"/>
<path fill="#DEE8F2" opacity="1.000000" stroke="none" 
	d="
M29.767040,83.423141 
	C30.943336,75.817696 32.123581,68.625916 33.647446,61.199821 
	C33.985058,66.450485 33.724098,71.950714 34.050835,77.415794 
	C34.330067,82.086395 35.283737,86.716675 36.038094,91.773987 
	C36.107452,92.878899 36.077808,93.574608 36.051521,94.621262 
	C33.861721,94.187164 31.668571,93.402122 29.255886,92.357697 
	C29.281231,89.344475 29.526110,86.590645 29.767040,83.423141 
z"/>
</svg>