<svg version="1.1" id="Layer_1" xmlns="http://www.w3.org/2000/svg" xmlns:xlink="http://www.w3.org/1999/xlink" x="0px" y="0px"
	 width="100%" viewBox="0 0 96 96" enable-background="new 0 0 96 96" xml:space="preserve">
<path fill="#EFF2F6" opacity="1.000000" stroke="none" 
	d="
M1.000000,61.000000 
	C1.000000,53.312424 1.000000,45.624847 1.351955,37.404221 
	C2.290734,35.937962 3.075684,35.074902 3.434637,34.061020 
	C8.739161,19.078074 18.811792,8.895108 33.794662,3.515818 
	C35.007812,3.080262 35.938213,1.857149 37.000000,1.000000 
	C44.687576,1.000000 52.375153,1.000000 60.595779,1.351959 
	C62.062012,2.290762 62.925045,3.075759 63.938915,3.434699 
	C78.921951,8.739121 89.104874,18.811794 94.484192,33.794659 
	C94.919754,35.007809 96.142853,35.938210 97.000000,37.000000 
	C97.000000,44.687576 97.000000,52.375153 96.648041,60.595787 
	C95.504425,62.687275 94.837112,64.325706 93.896210,65.788124 
	C91.674278,69.241592 89.322151,72.611305 87.009743,75.659225 
	C87.007179,74.592751 87.017555,73.881935 87.295601,72.977036 
	C88.316719,69.507996 89.070175,66.233032 89.984779,62.648315 
	C90.097572,61.107117 90.446907,59.658661 89.918015,58.689461 
	C88.820274,56.677868 87.256439,54.920616 85.884224,53.058807 
	C84.275986,54.700119 82.525703,56.232658 81.138947,58.043575 
	C80.673119,58.651886 81.132439,59.968647 81.123245,61.230087 
	C81.105881,61.677887 81.134171,61.857193 81.089737,62.456474 
	C80.695412,66.937691 81.002716,70.756485 84.990555,73.584595 
	C85.671890,78.122017 83.786018,79.559593 79.863396,79.036957 
	C78.598373,78.868416 77.293320,79.000320 76.004684,78.526443 
	C76.001808,68.594498 75.838264,59.126728 76.079384,49.669277 
	C76.176651,45.854424 74.834305,44.707718 71.189774,44.934803 
	C67.559296,45.161011 63.895218,44.847839 60.495392,44.506233 
	C68.281021,39.386688 67.971848,31.866144 66.435890,25.171852 
	C64.915970,18.547491 59.637913,15.940957 50.779716,15.979259 
	C41.903202,16.017643 36.375294,21.978077 35.910824,30.904947 
	C35.579514,37.272690 39.614170,40.851444 42.611969,44.985382 
	C35.758198,44.995403 29.379854,44.998745 22.668989,45.000935 
	C21.894213,44.997929 21.451960,44.996078 21.013687,44.552944 
	C20.116100,39.955643 19.787992,35.558224 18.166130,31.705418 
	C16.190290,27.011728 11.866825,26.870016 8.787079,30.803282 
	C3.829587,37.134693 3.661722,52.283661 8.476993,58.787151 
	C11.256970,62.541782 14.554092,62.882492 17.295820,59.005230 
	C19.122492,56.422009 19.808208,53.031982 21.336735,50.001938 
	C22.111458,50.001629 22.554026,50.002445 22.939459,50.409378 
	C22.589428,54.210278 22.296530,57.605064 21.601658,61.001907 
	C19.915508,62.158199 17.987543,63.092327 17.499826,64.518860 
	C16.789213,66.597359 17.547491,69.163406 16.895468,71.280075 
	C15.964343,74.302788 14.324061,77.107056 12.685240,79.850723 
	C9.548936,74.812096 6.743269,69.910034 3.860965,65.053444 
	C3.019547,63.635685 1.959717,62.347549 1.000000,61.000000 
z"/>
<path fill="#EFF2F6" opacity="1.000000" stroke="none" 
	d="
M12.986652,80.004623 
	C14.324061,77.107056 15.964343,74.302788 16.895468,71.280075 
	C17.547491,69.163406 16.789213,66.597359 17.499826,64.518860 
	C17.987543,63.092327 19.915508,62.158199 21.603226,61.469872 
	C22.009748,67.626266 22.012732,73.316750 21.732141,79.062210 
	C21.374788,79.355682 21.301006,79.594185 21.227224,79.832680 
	C21.534176,79.886848 21.841074,79.988129 22.148087,79.988472 
	C42.773643,80.011749 63.399208,80.026901 83.980576,80.384323 
	C79.552361,87.867424 72.396164,91.079964 65.098488,94.159637 
	C63.599693,94.792137 62.359432,96.037262 61.000000,97.000000 
	C53.312424,97.000000 45.624847,97.000000 37.404060,96.648102 
	C35.483158,95.549301 34.156982,94.641975 32.697498,94.082268 
	C24.898960,91.091530 17.979448,86.907135 12.986652,80.004623 
z"/>
<path fill="#FFFFFF" opacity="1.000000" stroke="none" 
	d="
M61.468658,97.000000 
	C62.359432,96.037262 63.599693,94.792137 65.098488,94.159637 
	C72.396164,91.079964 79.552361,87.867424 84.312637,80.324860 
	C85.466827,78.620850 86.244759,77.317871 87.022682,76.014893 
	C89.322151,72.611305 91.674278,69.241592 93.896210,65.788124 
	C94.837112,64.325706 95.504425,62.687275 96.648041,61.064423 
	C97.000000,72.926605 97.000000,84.853210 97.000000,97.000000 
	C85.313362,97.000000 73.625336,97.000000 61.468658,97.000000 
z"/>
<path fill="#FFFFFF" opacity="1.000000" stroke="none" 
	d="
M36.531342,1.000000 
	C35.938213,1.857149 35.007812,3.080262 33.794662,3.515818 
	C18.811792,8.895108 8.739161,19.078074 3.434637,34.061020 
	C3.075684,35.074902 2.290734,35.937962 1.351955,36.935585 
	C1.000000,25.073397 1.000000,13.146794 1.000000,1.000000 
	C12.686640,1.000000 24.374662,1.000000 36.531342,1.000000 
z"/>
<path fill="#FFFFFF" opacity="1.000000" stroke="none" 
	d="
M97.000000,36.531342 
	C96.142853,35.938210 94.919754,35.007809 94.484192,33.794659 
	C89.104874,18.811794 78.921951,8.739121 63.938915,3.434699 
	C62.925045,3.075759 62.062012,2.290762 61.064415,1.351959 
	C72.926605,1.000000 84.853210,1.000000 97.000000,1.000000 
	C97.000000,12.686641 97.000000,24.374662 97.000000,36.531342 
z"/>
<path fill="#FFFFFF" opacity="1.000000" stroke="none" 
	d="
M12.685242,79.850723 
	C17.979448,86.907135 24.898960,91.091530 32.697498,94.082268 
	C34.156982,94.641975 35.483158,95.549301 36.935425,96.648102 
	C25.073397,97.000000 13.146791,97.000000 1.000000,97.000000 
	C1.000000,85.313362 1.000000,73.625336 1.000000,61.468658 
	C1.959717,62.347549 3.019547,63.635685 3.860965,65.053444 
	C6.743269,69.910034 9.548936,74.812096 12.685242,79.850723 
z"/>
<path fill="#6B9ABB" opacity="1.000000" stroke="none" 
	d="
M43.087399,44.978703 
	C39.614170,40.851444 35.579514,37.272690 35.910824,30.904947 
	C36.375294,21.978077 41.903202,16.017643 50.779716,15.979259 
	C59.637913,15.940957 64.915970,18.547491 66.435890,25.171852 
	C67.971848,31.866144 68.281021,39.386688 60.209320,44.591118 
	C58.752861,46.271431 57.831993,47.601921 56.650265,49.122120 
	C55.869446,50.484863 55.349487,51.657894 54.560928,53.026741 
	C53.876598,54.426483 53.460873,55.630409 52.725426,56.888855 
	C51.975487,56.922081 51.545269,56.900784 51.079010,56.661369 
	C51.042969,56.443256 50.946445,56.011780 50.942402,55.690716 
	C50.321514,54.546661 49.704674,53.723671 49.028099,52.581993 
	C48.339802,51.167809 47.711239,50.072308 46.954788,48.665207 
	C45.580399,47.228638 44.333897,46.103672 43.087399,44.978703 
M47.719986,26.927557 
	C47.379391,27.490173 46.700840,28.090342 46.758438,28.608715 
	C46.973846,30.547407 46.794338,33.215523 47.955471,34.191902 
	C49.442310,35.442162 52.342224,36.119385 54.139145,35.531998 
	C55.499260,35.087395 56.732952,32.330509 56.888100,30.506142 
	C57.269405,26.022318 55.829361,25.439592 47.719986,26.927557 
z"/>
<path fill="#DBE5ED" opacity="1.000000" stroke="none" 
	d="
M56.911125,48.932415 
	C57.831993,47.601921 58.752861,46.271431 59.959801,44.856052 
	C63.895218,44.847839 67.559296,45.161011 71.189774,44.934803 
	C74.834305,44.707718 76.176651,45.854424 76.079384,49.669277 
	C75.838264,59.126728 76.001808,68.594498 75.535294,78.528160 
	C57.383766,79.001213 39.699738,79.004227 22.015713,79.007240 
	C22.012732,73.316750 22.009748,67.626266 22.005199,61.467812 
	C22.296530,57.605064 22.589428,54.210278 22.941074,49.992195 
	C23.000385,47.779961 23.000948,46.391026 23.001511,45.002087 
	C29.379854,44.998745 35.758198,44.995403 42.611969,44.985382 
	C44.333897,46.103672 45.580399,47.228638 46.486740,48.681538 
	C42.424313,49.062977 38.702042,49.116482 34.653667,49.139496 
	C33.891811,49.129269 33.456066,49.149529 32.601707,49.118904 
	C27.973270,48.335758 27.588957,50.835182 27.986298,54.343227 
	C27.980772,55.116360 27.995493,55.558289 27.985508,56.428368 
	C27.977749,58.572407 27.994698,60.288300 27.989445,62.335911 
	C27.981974,63.110424 27.996702,63.553219 27.986275,64.424934 
	C27.978464,66.573166 27.995808,68.292473 27.991001,70.342926 
	C27.982878,71.116096 27.996901,71.558121 28.002182,72.417732 
	C28.658566,73.578651 29.266413,74.896736 29.998352,74.969681 
	C33.985558,75.367050 38.003330,75.457741 42.320045,75.715302 
	C43.049431,75.796150 43.469357,75.815636 44.332085,75.892067 
	C46.555096,75.910179 48.335308,75.871346 50.475185,75.846603 
	C51.549099,75.794617 52.263348,75.728531 53.441528,75.752167 
	C58.317638,75.866554 62.734543,75.775688 67.140350,75.955986 
	C70.136642,76.078606 71.473793,75.037910 70.872375,71.649551 
	C70.882210,70.892776 70.863014,70.459961 70.893547,69.596237 
	C70.911728,67.435356 70.880173,65.705383 70.877312,63.650742 
	C70.887001,62.892334 70.867989,62.458603 70.896324,61.594345 
	C70.912018,59.434330 70.880379,57.704834 70.877441,55.650764 
	C70.887199,54.892574 70.868256,54.458965 70.896103,53.594372 
	C71.495171,49.838284 69.966904,48.791180 66.784424,48.976494 
	C63.505299,49.167431 60.203182,48.963551 56.911125,48.932415 
z"/>
<path fill="#D4DFE9" opacity="1.000000" stroke="none" 
	d="
M21.004578,50.003056 
	C19.808208,53.031982 19.122492,56.422009 17.295820,59.005230 
	C14.554092,62.882492 11.256970,62.541782 8.476993,58.787151 
	C3.661722,52.283661 3.829587,37.134693 8.787079,30.803282 
	C11.866825,26.870016 16.190290,27.011728 18.166130,31.705418 
	C19.787992,35.558224 20.116100,39.955643 21.009378,44.970741 
	C21.002251,47.220898 21.003414,48.611977 21.004578,50.003056 
z"/>
<path fill="#CEE4EC" opacity="1.000000" stroke="none" 
	d="
M21.732140,79.062210 
	C39.699738,79.004227 57.383766,79.001213 75.537186,78.996490 
	C77.293320,79.000320 78.598373,78.868416 79.863396,79.036957 
	C83.786018,79.559593 85.671890,78.122017 85.233345,73.494522 
	C85.631844,72.928719 85.796791,72.877602 86.224304,72.924980 
	C86.667221,73.072693 86.847580,73.121902 87.027939,73.171120 
	C87.017555,73.881935 87.007179,74.592751 87.009743,75.659225 
	C86.244759,77.317871 85.466827,78.620850 84.356834,79.983292 
	C63.399208,80.026901 42.773643,80.011749 22.148087,79.988472 
	C21.841074,79.988129 21.534176,79.886848 21.227224,79.832680 
	C21.301006,79.594185 21.374788,79.355682 21.732140,79.062210 
z"/>
<path fill="#575A8D" opacity="1.000000" stroke="none" 
	d="
M81.168900,60.961597 
	C81.132439,59.968647 80.673119,58.651886 81.138947,58.043575 
	C82.525703,56.232658 84.275986,54.700119 85.884224,53.058807 
	C87.256439,54.920616 88.820274,56.677868 89.918015,58.689461 
	C90.446907,59.658661 90.097572,61.107117 89.612312,62.641560 
	C87.747475,60.722870 86.416245,58.501175 85.327049,56.683418 
	C84.969185,58.103100 84.478668,60.048996 83.994858,61.998066 
	C84.001564,62.001240 84.014839,62.008133 83.816895,61.758160 
	C82.802269,61.325989 81.985580,61.143795 81.168900,60.961597 
z"/>
<path fill="#575A8E" opacity="1.000000" stroke="none" 
	d="
M85.961746,72.826485 
	C85.796791,72.877602 85.631844,72.928719 85.224106,73.069908 
	C81.002716,70.756485 80.695412,66.937691 81.446075,62.449432 
	C82.588379,62.017654 83.301605,62.012894 84.014839,62.008133 
	C84.014839,62.008133 84.001564,62.001240 84.162491,62.340641 
	C84.869522,66.062187 85.415634,69.444336 85.961746,72.826485 
z"/>
<path fill="#627BA5" opacity="1.000000" stroke="none" 
	d="
M86.224304,72.924980 
	C85.415634,69.444336 84.869522,66.062187 84.155785,62.337467 
	C84.478668,60.048996 84.969185,58.103100 85.327049,56.683418 
	C86.416245,58.501175 87.747475,60.722870 89.451172,62.951317 
	C89.070175,66.233032 88.316719,69.507996 87.295601,72.977036 
	C86.847580,73.121902 86.667221,73.072693 86.224304,72.924980 
z"/>
<path fill="#E4EAF1" opacity="1.000000" stroke="none" 
	d="
M21.336735,50.001938 
	C21.003414,48.611977 21.002251,47.220898 21.005398,45.412022 
	C21.451960,44.996078 21.894213,44.997929 22.668989,45.000935 
	C23.000948,46.391026 23.000385,47.779961 22.998207,49.586079 
	C22.554026,50.002445 22.111458,50.001629 21.336735,50.001938 
z"/>
<path fill="#627BA5" opacity="1.000000" stroke="none" 
	d="
M83.816895,61.758160 
	C83.301605,62.012894 82.588379,62.017654 81.518806,62.029457 
	C81.134171,61.857193 81.105881,61.677887 81.123245,61.230087 
	C81.985580,61.143795 82.802269,61.325989 83.816895,61.758160 
z"/>
<path fill="#81E7F0" opacity="1.000000" stroke="none" 
	d="
M28.011429,63.996014 
	C27.996702,63.553219 27.981974,63.110424 28.411146,62.334152 
	C31.108076,62.081974 33.151451,62.088062 33.017616,58.822357 
	C32.859524,54.964699 30.033346,56.296078 28.010216,56.000221 
	C27.995493,55.558289 27.980772,55.116360 28.400715,54.340431 
	C32.823143,54.637638 33.323193,52.251080 33.020317,49.169788 
	C33.456066,49.149529 33.891811,49.129269 34.660553,49.552818 
	C35.646339,51.309582 36.292767,53.747684 36.952953,53.751419 
	C40.996181,53.774258 45.042526,53.245613 49.087833,52.900681 
	C49.704674,53.723671 50.321514,54.546661 50.480820,55.687668 
	C45.256516,56.005684 40.489754,56.005684 35.722992,56.005684 
	C35.727669,56.692936 35.732349,57.380188 35.737026,58.067440 
	C40.217106,58.067440 44.697186,58.067440 48.998283,58.348457 
	C47.653194,59.874592 45.064449,60.487450 46.592110,63.273438 
	C45.616943,65.219208 44.905659,66.938583 44.194374,68.657959 
	C45.494465,69.104347 46.788185,69.914291 48.095684,69.937172 
	C55.676598,70.069839 63.260757,70.017136 70.843819,70.027145 
	C70.863014,70.459961 70.882210,70.892776 70.420181,71.658554 
	C65.516113,71.996399 61.088703,72.124634 56.672073,71.961342 
	C53.885582,71.858307 52.706116,72.926247 52.977596,75.662445 
	C52.263348,75.728531 51.549099,75.794617 50.388268,75.508286 
	C47.516197,71.746643 45.494591,71.936157 43.889286,75.835121 
	C43.469357,75.815636 43.049431,75.796150 42.310463,75.331726 
	C40.815060,73.926888 39.715759,72.281616 38.447495,72.139008 
	C35.006935,71.752136 31.494724,72.002464 28.010923,72.000153 
	C27.996901,71.558121 27.982878,71.116096 28.412674,70.340118 
	C31.112495,70.087708 33.150421,70.085167 33.018055,66.822319 
	C32.861511,62.963642 30.034887,64.293121 28.011429,63.996014 
M37.640568,64.020348 
	C36.795223,65.433258 35.949879,66.846169 35.104534,68.259087 
	C36.461452,68.834999 37.841038,69.890030 39.167740,69.827263 
	C40.137337,69.781403 41.600018,68.405312 41.856995,67.376030 
	C42.486847,64.853249 40.990097,63.776985 37.640568,64.020348 
z"/>
<path fill="#86F7FB" opacity="1.000000" stroke="none" 
	d="
M48.030212,26.656548 
	C55.829361,25.439592 57.269405,26.022318 56.888100,30.506142 
	C56.732952,32.330509 55.499260,35.087395 54.139145,35.531998 
	C52.342224,36.119385 49.442310,35.442162 47.955471,34.191902 
	C46.794338,33.215523 46.973846,30.547407 46.758438,28.608715 
	C46.700840,28.090342 47.379391,27.490173 48.030212,26.656548 
z"/>
<path fill="#82E6EF" opacity="1.000000" stroke="none" 
	d="
M70.848984,62.024868 
	C70.867989,62.458603 70.887001,62.892334 70.431503,63.657936 
	C65.243469,64.007088 60.529953,64.024376 55.614002,63.890854 
	C55.914032,63.146412 56.416492,62.552784 57.355278,61.970734 
	C58.453739,61.985477 59.119087,61.947548 59.777447,61.998970 
	C62.555656,62.215988 63.678879,60.445404 62.760250,58.364819 
	C62.249031,57.206974 59.924149,56.473618 58.334820,56.300617 
	C57.278847,56.185673 56.078201,57.399826 54.675110,57.925205 
	C53.953651,57.499012 53.499397,57.166672 53.045143,56.834328 
	C53.460873,55.630409 53.876598,54.426483 54.851318,53.330910 
	C58.540184,54.072861 61.903538,55.584003 63.638725,50.888386 
	C64.674103,55.777294 68.347244,53.404236 70.849319,54.025352 
	C70.868256,54.458965 70.887199,54.892574 70.451355,55.658581 
	C69.334251,55.995117 68.525436,55.755817 68.037361,56.049519 
	C66.633041,56.894592 64.547989,57.727718 64.197548,58.977077 
	C63.413708,61.771500 65.684837,62.089607 67.868935,62.006752 
	C68.860626,61.969128 69.855537,62.016209 70.848984,62.024868 
z"/>
<path fill="#EED27C" opacity="1.000000" stroke="none" 
	d="
M56.918949,61.959156 
	C56.416492,62.552784 55.914032,63.146412 55.666698,64.309052 
	C54.759563,69.124428 51.362556,66.287933 49.071747,66.802238 
	C48.636150,66.900040 47.609787,64.366501 46.855995,63.047039 
	C45.064449,60.487450 47.653194,59.874592 49.260582,58.237701 
	C50.172928,57.523781 50.643990,57.201633 51.115047,56.879486 
	C51.545269,56.900784 51.975487,56.922081 52.725426,56.888855 
	C53.499397,57.166672 53.953651,57.499012 54.623558,58.215214 
	C55.532455,59.719101 56.225704,60.839127 56.918949,61.959156 
z"/>
<path fill="#87F6FB" opacity="1.000000" stroke="none" 
	d="
M70.896111,53.594372 
	C68.347244,53.404236 64.674103,55.777294 63.638725,50.888386 
	C61.903538,55.584003 58.540184,54.072861 55.119919,53.135098 
	C55.349487,51.657894 55.869446,50.484863 56.650269,49.122124 
	C60.203182,48.963551 63.505299,49.167431 66.784424,48.976494 
	C69.966904,48.791180 71.495171,49.838284 70.896111,53.594372 
z"/>
<path fill="#88F6FB" opacity="1.000000" stroke="none" 
	d="
M49.028099,52.581993 
	C45.042526,53.245613 40.996181,53.774258 36.952953,53.751419 
	C36.292767,53.747684 35.646339,51.309582 34.986664,49.583309 
	C38.702042,49.116482 42.424313,49.062977 46.614632,48.993141 
	C47.711239,50.072308 48.339802,51.167809 49.028099,52.581993 
z"/>
<path fill="#86F4F9" opacity="1.000000" stroke="none" 
	d="
M51.079010,56.661369 
	C50.643990,57.201633 50.172928,57.523781 49.439568,57.956688 
	C44.697186,58.067440 40.217106,58.067440 35.737026,58.067440 
	C35.732349,57.380188 35.727669,56.692936 35.722992,56.005684 
	C40.489754,56.005684 45.256516,56.005684 50.484863,56.008732 
	C50.946445,56.011780 51.042969,56.443256 51.079010,56.661369 
z"/>
<path fill="#87F6FB" opacity="1.000000" stroke="none" 
	d="
M46.592110,63.273438 
	C47.609787,64.366501 48.636150,66.900040 49.071747,66.802238 
	C51.362556,66.287933 54.759563,69.124428 55.869129,64.459869 
	C60.529953,64.024376 65.243469,64.007088 70.402802,63.982605 
	C70.880173,65.705383 70.911728,67.435356 70.893547,69.596237 
	C63.260757,70.017136 55.676598,70.069839 48.095684,69.937172 
	C46.788185,69.914291 45.494465,69.104347 44.194374,68.657959 
	C44.905659,66.938583 45.616943,65.219208 46.592110,63.273438 
z"/>
<path fill="#87F6FB" opacity="1.000000" stroke="none" 
	d="
M53.441528,75.752167 
	C52.706116,72.926247 53.885582,71.858307 56.672073,71.961342 
	C61.088703,72.124634 65.516113,71.996399 70.391159,71.982521 
	C71.473793,75.037910 70.136642,76.078606 67.140350,75.955986 
	C62.734543,75.775688 58.317638,75.866554 53.441528,75.752167 
z"/>
<path fill="#85F7FB" opacity="1.000000" stroke="none" 
	d="
M28.002182,72.417732 
	C31.494724,72.002464 35.006935,71.752136 38.447495,72.139008 
	C39.715759,72.281616 40.815060,73.926888 42.001007,75.270370 
	C38.003330,75.457741 33.985558,75.367050 29.998352,74.969681 
	C29.266413,74.896736 28.658566,73.578651 28.002182,72.417732 
z"/>
<path fill="#87F6FB" opacity="1.000000" stroke="none" 
	d="
M70.896324,61.594345 
	C69.855537,62.016209 68.860626,61.969128 67.868935,62.006752 
	C65.684837,62.089607 63.413708,61.771500 64.197548,58.977077 
	C64.547989,57.727718 66.633041,56.894592 68.037361,56.049519 
	C68.525436,55.755817 69.334251,55.995117 70.422653,55.983154 
	C70.880379,57.704834 70.912018,59.434330 70.896324,61.594345 
z"/>
<path fill="#86F8FC" opacity="1.000000" stroke="none" 
	d="
M27.986275,64.424934 
	C30.034887,64.293121 32.861511,62.963642 33.018055,66.822319 
	C33.150421,70.085167 31.112495,70.087708 28.434822,70.008972 
	C27.995808,68.292473 27.978464,66.573166 27.986275,64.424934 
z"/>
<path fill="#86F7FC" opacity="1.000000" stroke="none" 
	d="
M27.985508,56.428368 
	C30.033346,56.296078 32.859524,54.964699 33.017616,58.822357 
	C33.151451,62.088062 31.108076,62.081974 28.433346,62.002434 
	C27.994698,60.288300 27.977749,58.572407 27.985508,56.428368 
z"/>
<path fill="#88F6FB" opacity="1.000000" stroke="none" 
	d="
M32.601707,49.118904 
	C33.323193,52.251080 32.823143,54.637638 28.420963,54.009232 
	C27.588957,50.835182 27.973270,48.335758 32.601707,49.118904 
z"/>
<path fill="#ACEEF4" opacity="1.000000" stroke="none" 
	d="
M44.332085,75.892067 
	C45.494591,71.936157 47.516197,71.746643 50.028603,75.494186 
	C48.335308,75.871346 46.555096,75.910179 44.332085,75.892067 
z"/>
<path fill="#85F7FB" opacity="1.000000" stroke="none" 
	d="
M38.070175,64.013680 
	C40.990097,63.776985 42.486847,64.853249 41.856995,67.376030 
	C41.600018,68.405312 40.137337,69.781403 39.167740,69.827263 
	C37.841038,69.890030 36.461452,68.834999 35.104530,68.259087 
	C35.949879,66.846169 36.795223,65.433258 38.070175,64.013680 
z"/>
<path fill="#87F6F9" opacity="1.000000" stroke="none" 
	d="
M57.355278,61.970734 
	C56.225704,60.839127 55.532455,59.719101 54.890759,58.309063 
	C56.078201,57.399826 57.278847,56.185673 58.334820,56.300617 
	C59.924149,56.473618 62.249031,57.206974 62.760250,58.364819 
	C63.678879,60.445404 62.555656,62.215988 59.777447,61.998970 
	C59.119087,61.947548 58.453739,61.985477 57.355278,61.970734 
z"/>
</svg>